<?xml version="1.0" encoding="utf-8"?>
<!-- Generator: Adobe Illustrator 26.2.1, SVG Export Plug-In . SVG Version: 6.00 Build 0)  -->
<svg version="1.1" id="Capa_1" xmlns="http://www.w3.org/2000/svg" xmlns:xlink="http://www.w3.org/1999/xlink" x="0px" y="0px"
	 viewBox="0 0 255.7 236.6" style="enable-background:new 0 0 255.7 236.6;" xml:space="preserve">
<style type="text/css">
	.st0{fill:#D6D6D6;}
</style>
<path class="st0" d="M217.6,25.7h-79.1c-5.1,0-9.3,4.2-9.3,9.3v79.9c0,5.1,4.2,9.3,9.3,9.3h29.7c-1.4,37.1-11.3,55.9-29.7,55.9
	c-5.1,0-9.3,4.2-9.3,9.3v37.9c0,5.1,4.2,9.3,9.3,9.3c14.4,0,27.4-3.1,38.5-9.1c11.1-6,20.5-14.6,28.1-25.6
	c7.3-10.7,12.9-23.6,16.5-38.4c3.5-14.4,5.3-30.7,5.3-48.5V35C226.9,29.8,222.8,25.7,217.6,25.7z"/>
<path class="st0" d="M88.4,25.7H9.3C4.2,25.7,0,29.8,0,35v79.9c0,5.1,4.2,9.3,9.3,9.3h29.3c-1.4,37.1-11.2,55.9-29.3,55.9
	c-5.1,0-9.3,4.2-9.3,9.3v37.9c0,5.1,4.2,9.3,9.3,9.3c14.4,0,27.4-3.1,38.5-9.1c11.1-6,20.5-14.6,28.1-25.6
	c7.3-10.7,12.9-23.6,16.5-38.4c3.5-14.4,5.3-30.7,5.3-48.5V35C97.7,29.8,93.5,25.7,88.4,25.7z"/>
</svg>
