<?xml version="1.0" encoding="UTF-8"?><svg id="a" xmlns="http://www.w3.org/2000/svg" viewBox="0 0 226.94 210.91"><path d="M97.71,9.3V47.17c0,5.14-4.16,9.3-9.3,9.3-18.33,0-28.29,18.79-29.67,55.88h29.67c5.14,0,9.3,4.16,9.3,9.3v79.95c0,5.14-4.16,9.3-9.3,9.3H9.3c-5.14,0-9.3-4.16-9.3-9.3V121.65c0-17.78,1.79-34.11,5.32-48.52,3.62-14.77,9.18-27.68,16.51-38.39,7.55-10.99,16.99-19.63,28.07-25.64C61.04,3.07,74,0,88.42,0c5.13,0,9.3,4.17,9.3,9.3Z"/><path d="M217.65,0C203.24,0,190.27,3.07,179.12,9.12c-11.08,6.01-20.52,14.64-28.07,25.64-7.34,10.71-12.89,23.62-16.51,38.4-3.53,14.41-5.31,30.72-5.31,48.5v79.95c0,5.14,4.16,9.3,9.3,9.3h79.11c5.13,0,9.3-4.16,9.3-9.3V121.65c0-5.14-4.16-9.3-9.3-9.3h-29.25c1.36-37.09,11.19-55.88,29.25-55.88,5.13,0,9.3-4.17,9.3-9.3V9.3C226.94,4.17,222.78,0,217.65,0Z"/></svg>